<?xml version="1.0" encoding="utf-8"?>
<!-- Generator: Adobe Illustrator 25.3.1, SVG Export Plug-In . SVG Version: 6.00 Build 0)  -->
<svg version="1.1" xmlns="http://www.w3.org/2000/svg" xmlns:xlink="http://www.w3.org/1999/xlink" x="0px" y="0px"
	 viewBox="0 0 800 800" style="enable-background:new 0 0 800 800;" xml:space="preserve">
<style type="text/css">
	.st0{fill:#E2E5E7;}
	.st1{fill:#B0B7BD;}
	.st2{fill:#CAD1D8;}
	.st3{fill:#F7B84E;}
	.st4{display:none;}
	.st5{display:inline;fill:#FFFFFF;}
	.st6{fill:#FFFFFF;}
</style>
<g id="Layer_1">
	<path class="st0" d="M200,0c-27.5,0-50,22.5-50,50v700c0,27.5,22.5,50,50,50h500c27.5,0,50-22.5,50-50V200L550,0H200z"/>
	<path class="st1" d="M600,200h150L550,0v150C550,177.5,572.5,200,600,200z"/>
	<polygon class="st2" points="750,350 600,200 750,200 	"/>
	<path class="st3" d="M650,650c0,13.8-11.2,25-25,25H75c-13.8,0-25-11.2-25-25V400c0-13.8,11.2-25,25-25h550c13.8,0,25,11.2,25,25
		V650z"/>
	<g class="st4">
		<path class="st5" d="M156.2,600c-7.2,0-12.2-5.4-12.2-12.4V474.1c0-7.2,5-12.4,12.2-12.4h56.2c26.2,0,40.4,17.8,40.4,38.2
			c0,9-2.6,17.8-11,25.2c15.8,6.2,22.8,18.4,22.8,33.2c0,23-15.6,41.8-45.6,41.8L156.2,600L156.2,600z M212.4,486h-42.2v29.8h42.2
			c8.6,0,14-5.4,14-16C226.3,493.2,221,486,212.4,486z M170.2,575.6H219c23.2,0,23.2-35.4,0-35.4c-15.2,0-33,0-48.8,0V575.6z"/>
		<path class="st5" d="M314.8,512.2v74c0,8.8-7.2,13.8-14.4,13.8c-6.4,0-12-5-12-13.8V473.7c0-10.4,8.8-13.8,12-13.8
			c5.8,0,9.2,3.4,12.6,7.2l44,59.4l45.5-61.6c6.6-8.2,22.8-5,22.8,8.8v112.5c0,8.8-5.6,13.8-12,13.8c-7.2,0-12.8-5-12.8-13.8v-74
			l-33.2,42c-7.2,8.8-16.2,8.8-22.8,0L314.8,512.2z"/>
		<path class="st5" d="M453.4,473.7c0-6.6,5.2-13.8,13.6-13.8h46.2c26,0,49.4,17.4,49.4,50.8c0,31.6-23.4,49.2-49.4,49.2h-33.4v26.4
			c0,8.8-5.6,13.8-12.8,13.8c-6.6,0-13.6-5-13.6-13.8L453.4,473.7L453.4,473.7z M479.8,485.1v49.8h33.4c13.4,0,24-11.8,24-24.2
			c0-14-10.6-25.6-24-25.6L479.8,485.1L479.8,485.1z"/>
	</g>
	<path class="st2" d="M625,675H150v25h475c13.8,0,25-11.2,25-25v-25C650,663.8,638.8,675,625,675z"/>
</g>
<g id="Layer_2">
	<g>
		<path class="st6" d="M268.6,599.4c-3.6,0-6.7-1.3-9.3-4c-2.5-2.8-3.7-6.1-3.7-10V514l-32.7,44.1c-2.5,3.5-5.9,5.2-10.3,5.2
			c-4.4,0-7.8-1.7-10.3-5.2L169.6,514v71.5c0,3.9-1.2,7.2-3.7,10c-2.6,2.7-5.7,4-9.3,4c-3.6,0-6.7-1.3-9.3-4
			c-2.5-2.8-3.7-6.1-3.7-10V473.7c0-6.7,2.9-11,8.8-13.2c5.8-2.3,10.7-0.7,14.6,4.6l45.7,61.9l45.7-61.9c3.9-5.2,8.7-6.7,14.6-4.6
			c5.8,2.1,8.8,6.5,8.8,13.2v111.8c0,3.9-1.2,7.2-3.7,10C275.3,598.1,272.2,599.4,268.6,599.4z"/>
		<path class="st6" d="M307.8,473.7c0-3.9,1.2-7.1,3.7-9.8c2.6-2.8,5.7-4.2,9.3-4.2c3.6,0,6.7,1.4,9.3,4.2c2.5,2.7,3.7,5.9,3.7,9.8
			v41.9h25.8l40.9-51.1c2.4-2.9,5.4-4.5,9-4.8c3.5-0.3,6.7,0.9,9.5,3.4c2.7,2.5,4.2,5.7,4.5,9.6c0.2,3.9-0.8,7.3-3.2,10.2
			l-37.5,46.7l37.5,46.7c2.4,2.9,3.4,6.3,3.2,10.2c-0.3,3.9-1.7,7.1-4.5,9.6c-2.5,2.3-5.4,3.4-8.6,3.4c-4,0-7.3-1.6-9.9-4.8
			l-40.9-51.1h-25.8v41.9c0,3.9-1.2,7.1-3.7,9.8c-2.6,2.8-5.7,4.2-9.3,4.2c-3.6,0-6.7-1.4-9.3-4.2c-2.5-2.7-3.7-5.9-3.7-9.8V473.7z"
			/>
		<path class="st6" d="M536.5,467.5c1.6-3.5,4.1-5.8,7.5-7c3.5-1.3,6.8-1.1,10.1,0.6c3.2,1.7,5.4,4.5,6.5,8.2
			c1.1,3.6,0.9,7.1-0.7,10.6l-52.3,111.8c-2.4,5.2-6.2,7.8-11.6,7.8c-5.5,0-9.4-2.6-11.8-7.8l-52.3-111.8c-1.6-3.5-1.9-7-0.7-10.6
			c1.1-3.7,3.3-6.5,6.5-8.2c3.2-1.7,6.6-1.9,10.1-0.6c3.4,1.2,5.8,3.5,7.5,7l40.7,86.6L536.5,467.5z"/>
	</g>
	
		<text transform="matrix(0.9353 0 0 1 -461.9149 345.1504)" class="st6" style="font-family:'Aqumtwo-Classic'; font-size:199.6281px;">MP4</text>
</g>
</svg>
