<?xml version="1.0" encoding="iso-8859-1"?>
<!-- Uploaded to: SVG Repo, www.svgrepo.com, Generator: SVG Repo Mixer Tools -->
<svg version="1.1" id="Layer_1" xmlns="http://www.w3.org/2000/svg" xmlns:xlink="http://www.w3.org/1999/xlink" 
	 viewBox="0 0 512 512" xml:space="preserve">
<path style="fill:#178F3C;" d="M511.344,274.266C511.77,268.231,512,262.143,512,256C512,114.615,397.385,0,256,0S0,114.615,0,256
	c0,117.769,79.53,216.949,187.809,246.801L511.344,274.266z"/>
<path style="fill:#14662D;" d="M511.344,274.266L314.991,77.913L119.096,434.087l68.714,68.714C209.522,508.787,232.385,512,256,512
	C391.243,512,501.976,407.125,511.344,274.266z"/>
<polygon style="fill:#FFFFFF;" points="278.328,333.913 255.711,77.913 119.096,77.913 119.096,311.652 "/>
<polygon style="fill:#E8E6E6;" points="392.904,311.652 392.904,155.826 337.252,133.565 314.991,77.913 255.711,77.913 
	256.067,333.913 "/>
<polygon style="fill:#FFFFFF;" points="314.991,155.826 314.991,77.913 392.904,155.826 "/>
<rect x="119.096" y="311.652" style="fill:#67B780;" width="273.809" height="122.435"/>
<g>
	<path style="fill:#FFFFFF;" d="M204.721,389.6l-3.86,9.763h-13.848l22.855-52.975h13.848l22.325,52.975h-14.378l-3.784-9.763
		H204.721z M216.376,359.781l-7.72,19.601h15.287L216.376,359.781z"/>
	<path style="fill:#FFFFFF;" d="M263.985,399.362L243.4,346.387h14.378l13.547,38.974l13.547-38.974h13.848l-20.812,52.975H263.985z
		"/>
	<path style="fill:#FFFFFF;" d="M305.839,399.362v-52.975h13.472v52.975H305.839z"/>
</g>
</svg>