<?xml version="1.0" encoding="iso-8859-1"?>
<!-- Uploaded to: SVG Repo, www.svgrepo.com, Generator: SVG Repo Mixer Tools -->
<svg version="1.1" id="Layer_1" xmlns="http://www.w3.org/2000/svg" xmlns:xlink="http://www.w3.org/1999/xlink" 
	 viewBox="0 0 512 512" xml:space="preserve">
<path style="fill:#B1DDFF;" d="M511.344,274.266C511.77,268.231,512,262.143,512,256C512,114.615,397.385,0,256,0S0,114.615,0,256
	c0,117.769,79.53,216.949,187.809,246.801L511.344,274.266z"/>
<path style="fill:#83CAFF;" d="M511.344,274.266L314.991,77.913L119.096,434.087l68.714,68.714C209.522,508.787,232.385,512,256,512
	C391.243,512,501.976,407.125,511.344,274.266z"/>
<polygon style="fill:#FFFFFF;" points="278.328,333.913 255.711,77.913 119.096,77.913 119.096,311.652 "/>
<polygon style="fill:#E8E6E6;" points="392.904,311.652 392.904,155.826 337.252,133.565 314.991,77.913 255.711,77.913 
	256.067,333.913 "/>
<polygon style="fill:#FFFFFF;" points="314.991,155.826 314.991,77.913 392.904,155.826 "/>
<rect x="119.096" y="311.652" style="fill:#3CA8FA;" width="273.809" height="122.435"/>
<g>
	<path style="fill:#FFFFFF;" d="M213.611,399.362l-0.076-34.434l-12.714,29.136h-8.779l-12.714-29.136v34.434h-12.033v-53.051
		h14.757l14.379,31.559l14.378-31.559h14.682v53.051H213.611z"/>
	<path style="fill:#FFFFFF;" d="M291.87,372.798c0,15.439-12.26,27.169-28.682,27.169c-16.347,0-28.607-11.655-28.607-27.169
		c0-15.438,12.26-26.866,28.607-26.866C279.61,345.933,291.87,357.436,291.87,372.798z M248.354,372.874
		c0,8.93,6.888,15.817,14.985,15.817c8.173,0,14.681-6.888,14.681-15.817s-6.508-15.665-14.681-15.665
		C255.166,357.209,248.354,363.943,248.354,372.874z"/>
	<path style="fill:#FFFFFF;" d="M315.337,399.362l-20.585-52.975h14.378l13.547,38.974l13.547-38.974h13.85l-20.812,52.975H315.337z
		"/>
</g>
</svg>